<svg width="1122" height="456" viewBox="0 0 1122 456" fill="none" xmlns="http://www.w3.org/2000/svg">
<path d="M1006.1 101.446C1014.87 96.5626 1028.55 106.528 1034.6 112.123C1041.66 118.628 1047.36 126.907 1051.75 135.431C1071.65 174.128 1082.11 220.166 1065.76 262.097C1060.25 276.292 1051.66 289.086 1040.6 299.552C1034.38 305.405 1021.58 310.926 1019.72 319.88C1019.32 322.103 1019.48 324.39 1020.18 326.537C1022.65 334.742 1030.11 340.429 1035.81 346.403C1063.18 375.144 1043.39 419.699 1014.13 438.9" stroke="#CCDDE2" stroke-width="4.72" stroke-miterlimit="10"/>
<path d="M791.47 252.335C800.015 243.257 810.935 237.122 821.915 231.476C833.805 225.364 845.505 219.21 856.314 211.273C862.895 206.451 869.12 201.163 874.943 195.449" stroke="#CCDDE2" stroke-width="4.72" stroke-miterlimit="10"/>
<path d="M777.599 367.322C766.679 339.108 763.907 306.768 775.298 278.586" stroke="#CCDDE2" stroke-width="4.72" stroke-miterlimit="10"/>
<path d="M920.687 75.6571V45.4145C920.687 43.3315 919.86 41.3338 918.387 39.8609C916.915 38.388 914.917 37.5605 912.835 37.5605H812.704C810.622 37.5605 808.624 38.388 807.152 39.8609C805.679 41.3338 804.852 43.3315 804.852 45.4145V187.627C804.86 189.705 805.691 191.694 807.163 193.16C808.635 194.626 810.627 195.449 812.704 195.449H912.849C913.821 195.457 914.785 195.271 915.685 194.904" stroke="black" stroke-width="4.72" stroke-linecap="round" stroke-linejoin="round"/>
<path d="M909.657 42.3654H815.901C811.75 42.3654 808.385 45.7307 808.385 49.8821V183.155C808.385 187.307 811.75 190.672 815.901 190.672H909.657C913.807 190.672 917.172 187.307 917.172 183.155V49.8821C917.172 45.7307 913.807 42.3654 909.657 42.3654Z" fill="#3FBDF1"/>
<path d="M908.197 53.8414H818.548C816.471 53.8414 814.788 55.5251 814.788 57.6021V77.8469C814.788 79.9239 816.471 81.6076 818.548 81.6076H908.197C910.274 81.6076 911.957 79.9239 911.957 77.8469V57.6021C911.957 55.5251 910.274 53.8414 908.197 53.8414Z" fill="#3FBDF1"/>
<path d="M862.776 65.5393C864.363 65.5393 865.65 64.2527 865.65 62.6656C865.65 61.0786 864.363 59.792 862.776 59.792C861.19 59.792 859.903 61.0786 859.903 62.6656C859.903 64.2527 861.19 65.5393 862.776 65.5393Z" fill="#D7E8F0"/>
<path d="M854.753 75.6571C854.753 73.5288 855.598 71.4876 857.103 69.9827C858.608 68.4777 860.648 67.6322 862.776 67.6322C864.904 67.6322 866.945 68.4777 868.45 69.9827C869.955 71.4876 870.8 73.5288 870.8 75.6571H854.753Z" fill="#D7E8F0"/>
<path d="M863.363 111.365C860.302 111.363 857.309 112.27 854.763 113.97C852.216 115.67 850.232 118.087 849.059 120.915C847.887 123.743 847.58 126.856 848.177 129.859C848.773 132.862 850.247 135.621 852.412 137.786C854.577 139.951 857.335 141.425 860.337 142.022C863.34 142.619 866.452 142.312 869.28 141.139C872.108 139.967 874.525 137.982 876.224 135.435C877.924 132.888 878.83 129.895 878.828 126.833C878.827 122.731 877.197 118.797 874.297 115.897C871.397 112.996 867.464 111.366 863.363 111.365ZM863.363 138.568C862.764 138.568 862.19 138.33 861.766 137.906C861.342 137.482 861.104 136.908 861.104 136.308C861.104 135.709 861.342 135.135 861.766 134.711C862.19 134.287 862.764 134.049 863.363 134.049C863.962 134.049 864.537 134.287 864.96 134.711C865.384 135.135 865.622 135.709 865.622 136.308C865.622 136.908 865.384 137.482 864.96 137.906C864.537 138.33 863.962 138.568 863.363 138.568ZM866.227 121.173C865.742 124.527 865.331 128.062 864.347 131.337C864.107 132.114 862.633 132.114 862.393 131.337C861.686 128.884 861.143 126.387 860.767 123.862C860.467 122.014 859.381 119.057 860.421 117.265C861.317 115.676 863.862 115.477 865.331 116.309C867.151 117.348 866.453 119.506 866.227 121.173Z" fill="#D7E8F0"/>
<path d="M863.363 138.568C864.611 138.568 865.622 137.556 865.622 136.309C865.622 135.061 864.611 134.049 863.363 134.049C862.116 134.049 861.104 135.061 861.104 136.309C861.104 137.556 862.116 138.568 863.363 138.568Z" fill="white"/>
<path d="M866.227 121.173C865.742 124.527 865.331 128.062 864.347 131.337C864.107 132.114 862.633 132.114 862.393 131.337C861.686 128.884 861.143 126.387 860.767 123.862C860.467 122.014 859.381 119.057 860.421 117.265C861.317 115.676 863.862 115.477 865.331 116.308C867.151 117.348 866.453 119.506 866.227 121.173Z" fill="white"/>
<path d="M824.506 94.0078H900.058" stroke="white" stroke-width="4.72" stroke-miterlimit="10"/>
<path d="M824.506 101.441H900.058" stroke="white" stroke-width="4.72" stroke-miterlimit="10"/>
<path d="M824.506 149.342H900.058" stroke="white" stroke-width="4.72" stroke-miterlimit="10"/>
<path d="M918.452 168.51C918.738 168.732 919.237 75.3245 919.237 75.3245L890.815 64.3381C890.815 64.3381 869.687 116.133 870.966 116.655L876.671 118.965C876.671 118.965 878.08 117.852 881.346 125.895C884.611 133.938 908.151 160.587 918.452 168.51Z" fill="white"/>
<path d="M842.055 156.378H882.51" stroke="white" stroke-width="4.72" stroke-miterlimit="10"/>
<path d="M1032.18 210.538C1031.81 214.567 1026.84 260.776 1031.66 269.799C1033.4 273.065 1016.07 269.937 1015.03 269.697C999.325 266.001 984.617 259.187 970.852 250.898C957.087 242.61 944.924 231.702 930.572 224.352C927.921 222.994 922.05 220.018 923.787 216.124C926.743 209.489 930.374 200.332 930.66 192.234L930.572 181.608C930.572 181.608 928.475 174.936 935.316 180.781C942.157 186.625 973.462 202.033 993.726 184.181C1013.99 166.329 1015.19 152.211 1015.19 152.211C1015.19 152.211 1002.22 120.453 965.276 139.88L978.326 106.154C978.326 106.154 976.538 103.885 982.192 104.306C987.846 104.726 998.331 101.931 999.629 91.5684C999.629 91.5684 999.731 88.1866 1005.71 94.5807C1011.69 100.975 1039.96 125.946 1032.18 210.538Z" fill="#2E2E2E"/>
<path d="M959.558 90.9077C962.727 88.5829 966.277 86.8273 970.048 85.7195" stroke="black" stroke-width="4.72" stroke-miterlimit="10"/>
<path d="M945.515 248.588L920.11 340.452L897.014 423.991L882.306 425.377C878.934 425.688 875.8 427.247 873.517 429.748C871.234 432.25 869.967 435.513 869.964 438.9H915.449L948.393 382.111L972.898 339.861L1011.21 273.795C1012.32 271.869 1013.39 269.942 1014.44 267.974C1014.46 267.951 1014.47 267.924 1014.47 267.895" stroke="black" stroke-width="4.72" stroke-miterlimit="10"/>
<path d="M1031.24 217.602C1031.59 215.357 1031.89 213.111 1032.16 210.852C1032.16 210.746 1032.16 210.654 1032.19 210.547C1033.75 196.866 1034.08 183.073 1033.18 169.332C1033.18 169.292 1033.18 169.252 1033.18 169.212C1032.16 154.257 1029.42 138.549 1023.94 123.234C1022.35 118.817 1020.38 114.544 1018.06 110.464V110.464C1017.89 110.127 1017.7 109.794 1017.48 109.462C1016.75 108.187 1015.97 106.944 1015.17 105.715C1014.1 104.093 1012.96 102.518 1011.76 101.016C1009.98 98.7364 1008 96.6155 1005.85 94.6777C1005.83 94.6729 1005.82 94.665 1005.81 94.6546C1005.8 94.6442 1005.79 94.6315 1005.79 94.6176C1004.19 93.2027 1002.49 91.9057 1000.71 90.7368C1000.71 90.7368 1000.71 90.7368 1000.71 90.7368C1000.37 90.5104 1000.04 90.2979 999.703 90.0854C999.651 90.0453 999.595 90.0097 999.537 89.9791" stroke="black" stroke-width="4.72" stroke-miterlimit="10"/>
<path d="M972.898 339.861L1008.62 438.9H957.073C957.072 435.682 958.24 432.574 960.359 430.153C962.478 427.732 965.404 426.163 968.593 425.738L979.813 424.236C979.813 424.236 964.727 404.37 948.402 382.106" stroke="black" stroke-width="4.72" stroke-miterlimit="10"/>
<path d="M979.236 103.811L963.752 143.802C963.285 145.009 962.581 146.112 961.684 147.044C960.786 147.977 959.712 148.722 958.524 149.236C957.336 149.75 956.057 150.022 954.763 150.037C953.469 150.052 952.184 149.809 950.985 149.323L914.308 134.474C914.29 134.424 914.275 134.374 914.262 134.322C913.8 132.474 909.061 114.761 903.315 114.761C898.903 114.761 901.005 123.497 902.853 128.441C903.065 128.972 903.264 129.471 903.444 129.896L903.157 129.776L874.44 118.069L892.552 70.3164L927.912 83.9777L979.236 103.811Z" fill="#D7E8F0"/>
<path d="M903.435 129.896C901.508 125.484 898.441 114.761 903.319 114.761C909.065 114.761 913.8 132.488 914.267 134.322L914.313 134.474L950.985 149.328C952.186 149.813 953.472 150.055 954.768 150.039C956.064 150.022 957.343 149.748 958.532 149.232C959.721 148.716 960.795 147.969 961.692 147.033C962.589 146.098 963.291 144.993 963.757 143.784L981.009 99.2007L926.17 77.9995L890.815 64.3381L870.952 116.655L903.435 129.896Z" stroke="black" stroke-width="4.72" stroke-miterlimit="10"/>
<path d="M1017.11 128.773C1018.21 147.946 1013.93 172.474 989.486 186.911C953.331 208.293 905.481 159.852 887.766 136.345C884.839 132.485 882.367 128.299 880.399 123.871C879.802 122.583 879.302 121.252 878.902 119.889" stroke="black" stroke-width="4.72" stroke-miterlimit="10"/>
<path d="M930.254 177.468C930.254 177.468 933.025 197.662 924.48 214.83L924.517 214.784C924.517 214.784 924.517 214.816 924.489 214.83C911.371 239.441 892.589 278.701 903.065 307.23C906.627 316.932 912.766 328.482 920.105 340.457" stroke="black" stroke-width="4.72" stroke-miterlimit="10"/>
<path d="M993.865 60.4435L993.892 60.5728C994.115 63.2776 993.254 65.96 991.499 68.0299C989.744 70.0997 987.238 71.3875 984.534 71.61C982.803 71.7601 981.063 71.456 979.485 70.7276C979.033 70.536 978.599 70.3057 978.187 70.0392C978.018 69.9217 977.881 69.7652 977.786 69.583C977.69 69.4008 977.641 69.1983 977.641 68.9928C977.641 68.7872 977.69 68.5847 977.786 68.4025C977.881 68.2203 978.018 68.0638 978.187 67.9463C980.173 66.5141 981.989 64.5183 982.506 62.1806C982.662 61.4616 982.674 60.7191 982.543 59.9953C982.402 59.0728 982.021 58.2035 981.439 57.474C980.857 56.7444 980.094 56.1801 979.226 55.8373C978.955 55.7567 978.674 55.7116 978.39 55.7033C977.591 55.6387 976.543 55.7403 976.335 56.3317C977.355 53.4648 977.397 50.3408 976.455 47.4474C975.869 45.6572 974.882 44.0247 973.568 42.6749C973.628 43.1979 973.571 43.7276 973.403 44.2263C973.235 44.725 972.959 45.1805 972.595 45.5604C972.23 45.9402 971.787 46.235 971.295 46.4238C970.804 46.6126 970.277 46.6908 969.752 46.6528C965.683 46.5142 964.916 42.6334 964.916 42.6334C964.916 42.6334 964.916 42.6796 964.916 42.7073C963.142 47.1286 957.987 47.2487 954.292 45.2852C952.982 44.6127 951.83 43.6675 950.915 42.5132C949.867 37.981 953.604 33.6013 957.913 32.9729C958.006 30.0901 960.108 27.0039 962.944 26.7683C963.932 26.6838 964.925 26.866 965.818 27.2959C966.712 27.7257 967.474 28.3875 968.025 29.2123C968.103 29.337 968.191 29.471 968.26 29.6096C969.42 27.9279 971.318 26.0845 973.342 25.9136C974.745 25.815 976.145 26.1505 977.351 26.8744C978.557 27.5984 979.512 28.6758 980.086 29.9607C980.086 29.762 981.864 28.9489 982.044 28.875C983.705 28.2434 985.529 28.1826 987.228 28.702C988.928 29.2214 990.406 30.2917 991.43 31.744C991.533 32.1455 991.601 32.5551 991.634 32.9683C991.735 34.2039 991.545 35.4462 991.079 36.595C991.736 36.7822 992.349 37.0961 992.885 37.519C994.046 38.3687 994.825 39.6421 995.052 41.0626C995.075 41.2058 995.089 41.349 995.098 41.4922C995.191 42.5747 994.959 43.6602 994.433 44.6107C995.799 45.001 997.04 45.7412 998.032 46.7581C999.024 47.775 999.734 49.0334 1000.09 50.4088C1000.2 50.864 1000.28 51.3275 1000.32 51.7948C1000.48 53.7743 999.907 55.7435 998.72 57.3349C997.533 58.9263 995.807 60.0313 993.865 60.4435Z" fill="#3FBDF1"/>
<path d="M993.865 60.4434L993.892 60.5728C994.115 63.2776 993.254 65.96 991.498 68.0299C989.743 70.0997 987.238 71.3875 984.534 71.61C982.803 71.7601 981.063 71.456 979.485 70.7276C981.471 69.2953 983.287 67.2949 983.799 64.9572C983.981 64.088 983.961 63.1887 983.741 62.3285C983.521 61.4682 983.106 60.67 982.529 59.9953C982.388 59.0728 982.007 58.2035 981.425 57.474C980.843 56.7444 980.08 56.1801 979.212 55.8373C978.941 55.7566 978.66 55.7116 978.376 55.7033C978.651 52.8137 977.971 49.9139 976.441 47.4474C975.855 45.6572 974.868 44.0247 973.554 42.6749C973.614 43.1979 973.558 43.7276 973.389 44.2263C973.221 44.725 972.945 45.1805 972.581 45.5603C972.216 45.9402 971.773 46.235 971.281 46.4238C970.79 46.6126 970.263 46.6908 969.739 46.6527C965.669 46.5141 964.902 42.6333 964.902 42.6333C964.902 42.6333 964.902 42.6795 964.902 42.7073C963.128 47.1286 957.973 47.2487 954.278 45.2852C952.968 44.6127 951.816 43.6675 950.901 42.5132C949.853 37.981 953.59 33.6012 957.9 32.9729C957.992 30.09 960.094 27.0039 962.93 26.7683C963.918 26.6838 964.911 26.866 965.804 27.2958C966.698 27.7257 967.46 28.3875 968.011 29.2122C968.089 29.337 968.177 29.471 968.247 29.6096C969.406 27.9279 971.304 26.0845 973.328 25.9136C974.733 25.8121 976.136 26.1461 977.345 26.8703C978.554 27.5944 979.511 28.6734 980.086 29.9607C980.086 29.762 981.864 28.9489 982.044 28.875C983.705 28.2434 985.529 28.1825 987.228 28.702C988.928 29.2214 990.406 30.2916 991.43 31.744C991.533 32.1455 991.601 32.5551 991.634 32.9683C991.735 34.2039 991.545 35.4462 991.079 36.595C991.736 36.7822 992.349 37.0961 992.885 37.519C992.801 38.1537 992.634 38.7748 992.391 39.367C993.416 39.6671 994.337 40.2461 995.052 41.0394C995.075 41.1827 995.089 41.3259 995.098 41.4691C995.19 42.5516 994.959 43.6371 994.433 44.5876C995.12 44.7837 995.779 45.0695 996.391 45.4377C996.292 46.1131 996.073 46.7655 995.745 47.3642C997.491 47.8556 999.022 48.9197 1000.09 50.3857C1000.2 50.8408 1000.28 51.3043 1000.32 51.7717C1000.48 53.7549 999.916 55.7298 998.728 57.3261C997.54 58.9225 995.811 60.0308 993.865 60.4434Z" fill="#3FBDF1"/>
<path d="M957.969 51.1849C957.969 51.1849 963.826 51.2681 965.17 56.2115" stroke="black" stroke-width="4.72" stroke-miterlimit="10"/>
<path d="M956.458 65.9966C955.126 66.3254 953.742 66.3929 952.384 66.1953C952.129 66.1515 951.888 66.0465 951.682 65.8893C951.476 65.7321 951.312 65.5273 951.202 65.2926C951.093 65.0578 951.042 64.8 951.054 64.5412C951.066 64.2825 951.14 64.0305 951.271 63.8068C952.49 61.7416 953.747 59.6996 955.114 57.7361C955.328 57.4863 955.461 57.1766 955.493 56.849C955.493 56.849 954.929 50.7368 956.163 46.0475" stroke="black" stroke-width="4.72" stroke-miterlimit="10"/>
<path d="M961.067 56.386C961.191 55.4012 960.612 54.5174 959.775 54.412C958.937 54.3065 958.157 55.0194 958.033 56.0042C957.909 56.989 958.488 57.8728 959.326 57.9782C960.164 58.0836 960.943 57.3707 961.067 56.386Z" fill="black"/>
<path d="M988.742 70.3118C988.867 71.5361 994.359 80.0138 999.325 89.3739C999.322 89.3892 999.322 89.4048 999.325 89.4201C999.417 89.6187 999.509 89.8313 999.616 90.0438" stroke="black" stroke-width="4.72" stroke-linecap="round" stroke-linejoin="round"/>
<path d="M968.93 79.2745L970.658 91.573" stroke="black" stroke-width="4.72" stroke-miterlimit="10"/>
<path d="M954.343 66.3063C954.343 66.3063 956.846 78.4846 963.004 80.328C969.161 82.1713 974.506 74.4883 974.506 74.4883" stroke="black" stroke-width="4.72" stroke-linecap="round" stroke-linejoin="round"/>
<path d="M956.024 71.7994C956.842 72.2775 957.767 72.5439 958.713 72.5746C959.66 72.6052 960.6 72.3992 961.447 71.975" stroke="black" stroke-width="4.72" stroke-linecap="round" stroke-linejoin="round"/>
<path d="M967.586 29.0552C967.512 28.1105 967.194 27.2013 966.662 26.4172C965.985 25.3783 964.98 24.5963 963.806 24.1962C962.633 23.7961 961.359 23.801 960.189 24.2102C959.019 24.6193 958.019 25.4091 957.35 26.4532C956.682 27.4974 956.382 28.7356 956.5 29.97" stroke="black" stroke-width="4.72" stroke-miterlimit="10" stroke-linecap="round"/>
<path d="M967.35 26.1954C968.459 24.3474 969.683 23.3126 971.97 23.1231C973.388 23.0072 974.808 23.3377 976.029 24.0683C977.251 24.7989 978.214 25.8932 978.783 27.198C978.704 27.0178 980.561 26.1723 980.751 26.0984C981.491 25.8153 982.269 25.6441 983.06 25.5902C985.169 25.4767 987.241 26.1822 988.843 27.5595C990.444 28.9368 991.452 30.8795 991.657 32.9822C991.758 34.2179 991.568 35.4601 991.102 36.6089" stroke="black" stroke-width="4.72" stroke-linecap="square" stroke-linejoin="round"/>
<path d="M999.325 89.3785C999.325 89.3785 1003.64 103.728 978.972 104.504" stroke="black" stroke-width="4.72" stroke-miterlimit="10"/>
<path d="M871.072 233.148C871.031 222.656 881.341 219.833 886.279 219.926C916.881 220.508 921.496 171.009 921.496 171.009" stroke="black" stroke-width="4.72" stroke-linecap="round" stroke-linejoin="round"/>
<path d="M1031.24 217.602C1031.24 217.602 1027.63 253.241 1031.24 265.234C1034.85 277.228 1014.08 267.817 1014.08 267.817" stroke="black" stroke-width="4.72" stroke-miterlimit="10"/>
<path d="M824.285 244.463H800.27" stroke="black" stroke-width="4.72" stroke-linecap="round" stroke-linejoin="round"/>
<path d="M910.331 244.463H864.379" stroke="black" stroke-width="4.72" stroke-linecap="round" stroke-linejoin="round"/>
<path d="M857.788 244.463H830.659" stroke="black" stroke-width="4.72" stroke-linecap="round" stroke-linejoin="round"/>
<path d="M857.09 233.148H830.267" stroke="black" stroke-width="4.72" stroke-linecap="round" stroke-linejoin="round"/>
<path d="M878.463 233.148H863.982" stroke="black" stroke-width="4.72" stroke-linecap="round" stroke-linejoin="round"/>
<path d="M915.274 233.148H887.304" stroke="black" stroke-width="4.72" stroke-linecap="round" stroke-linejoin="round"/>
<path d="M823.564 233.148H818.82" stroke="black" stroke-width="4.72" stroke-linecap="round" stroke-linejoin="round"/>
<path d="M856.203 232.132H862.407C862.407 232.132 869.516 238.845 862.407 246.528V251.896H856.203" stroke="black" stroke-width="4.72" stroke-linecap="round" stroke-linejoin="round"/>
<path d="M828.885 232.132C828.885 232.132 835.994 238.845 828.885 246.528V251.896" stroke="black" stroke-width="4.72" stroke-linecap="round" stroke-linejoin="round"/>
<path d="M828.885 251.896H822.682V246.528C829.795 238.845 822.682 232.132 822.682 232.132H828.885" stroke="black" stroke-width="4.72" stroke-linecap="round" stroke-linejoin="round"/>
<path d="M856.203 232.132C856.203 232.132 863.317 238.845 856.203 246.528V251.896" stroke="black" stroke-width="4.72" stroke-linecap="round" stroke-linejoin="round"/>
<path d="M822.682 246.528H828.885" stroke="black" stroke-width="4.72" stroke-linecap="round" stroke-linejoin="round"/>
<path d="M856.203 246.528H862.407" stroke="black" stroke-width="4.72" stroke-linecap="round" stroke-linejoin="round"/>
<path d="M880.117 229.72C879.325 230.73 878.761 231.9 878.463 233.148C878.071 234.992 877.924 236.879 878.025 238.762C878.052 240.61 878.283 242.504 880.038 243.474C882.676 244.948 885.845 242.841 885.983 239.82C886.134 237.548 886.579 235.306 887.304 233.148C887.332 233.042 887.365 232.95 887.392 232.862" stroke="black" stroke-width="4.72" stroke-linecap="round" stroke-linejoin="round"/>
<path d="M887.392 232.848C889.591 232.386 892.866 231.18 894.533 228.071" stroke="black" stroke-width="4.72" stroke-linecap="round" stroke-linejoin="round"/>
<path d="M872.389 244.463C872.389 244.463 874.116 249.018 878.463 249.572C882.81 250.127 880.061 244.463 880.061 244.463C880.061 244.463 881.863 248.454 884.043 248.588C886.223 248.722 888.108 246.74 887.355 244.463C887.355 244.463 888.02 248.126 891.244 247.724C894.469 247.322 893.138 244.463 893.138 244.463" stroke="black" stroke-width="4.72" stroke-linecap="round" stroke-linejoin="round"/>
<g opacity="0.54">
<path opacity="0.54" d="M822.806 309.351L819.688 354.386C817.998 357.445 816.095 360.152 814.399 361.825C814.173 361.741 813.938 361.658 813.72 361.557C813.305 361.413 812.894 361.247 812.501 361.095C806.182 358.323 801.415 353.162 799.983 347.336C798.727 342.213 799.863 336.678 797.424 331.864C794.449 325.936 786.338 322.217 785.363 315.523C784.439 309.263 790.07 303.511 789.16 297.385C788.107 290.455 779.598 286.334 778.009 279.556C777.016 275.343 777.903 270.51 777.548 266.158C777.127 261.309 776.306 256.504 775.095 251.79C787.654 250.866 800.44 257.796 804.51 267.715C807.836 275.833 805.831 285.317 811.037 292.714C813.864 296.72 818.575 299.713 821.01 303.908C821.76 305.215 822.304 306.63 822.622 308.103C822.645 308.205 822.645 308.311 822.663 308.39C822.686 308.556 822.705 308.681 822.723 308.805C822.765 309.166 822.806 309.351 822.806 309.351Z" fill="#3FBDF1"/>
<path opacity="0.54" d="M822.829 309.332H822.806C822.806 309.332 822.765 309.147 822.723 308.796C822.762 308.939 822.79 309.084 822.806 309.231C822.829 309.268 822.829 309.309 822.829 309.332Z" fill="#3FBDF1"/>
</g>
<path d="M864.324 291.771C862.67 297.616 853.792 301.169 852.716 307.161C851.764 312.469 857.631 317.426 856.661 322.818C855.631 328.607 847.2 331.808 844.106 336.932C841.584 341.09 842.761 345.853 841.459 350.275C839.953 355.296 834.992 359.778 828.363 362.153C827.952 362.3 827.56 362.444 827.144 362.568C826.918 362.628 826.682 362.712 826.442 362.772C824.252 360.974 821.753 357.814 819.707 354.405L822.825 309.369H822.848C825.264 307.322 828.031 305.442 829.952 303.169C832.04 300.711 833.01 298.027 833.648 295.218H833.657V294.908C834.581 290.464 834.65 285.816 836.738 281.603C840.969 273.028 854.249 267.059 867.326 267.844C866.094 271.893 865.249 276.05 864.804 280.258C864.425 283.982 865.359 288.154 864.324 291.771Z" fill="#F5BD33"/>
<path d="M833.657 294.872V295.181H833.597C833.629 295.075 833.657 294.973 833.657 294.872Z" fill="#3FBDF1"/>
<path d="M833.657 294.871C833.657 294.973 833.615 295.075 833.597 295.181C832.978 297.99 832.008 300.674 829.902 303.132C827.98 305.405 825.213 307.29 822.797 309.332C822.797 309.332 822.797 309.267 822.774 309.249C822.758 309.102 822.73 308.957 822.691 308.815C822.691 308.69 822.654 308.565 822.631 308.399C822.631 308.32 822.631 308.214 822.589 308.112C822.271 306.639 821.728 305.224 820.977 303.917C818.543 299.722 813.831 296.729 811.004 292.723C811.004 292.723 812.284 271.61 823.084 265.183C833.343 259.108 833.657 291.356 833.657 294.871Z" fill="#3FBDF1"/>
<path d="M833.657 294.872V295.181H833.597C833.629 295.075 833.657 294.973 833.657 294.872Z" fill="#3FBDF1"/>
<path d="M822.807 309.249V309.351C822.807 309.351 822.765 309.166 822.723 308.815C822.763 308.957 822.79 309.102 822.807 309.249Z" fill="#3FBDF1"/>
<path d="M821.846 309.355C824.252 307.304 827.042 305.4 828.973 303.132C834.387 296.738 832.304 288.57 835.777 281.561C840.004 272.996 853.33 267.027 866.375 267.812C865.131 271.858 864.283 276.016 863.844 280.226C863.455 283.973 864.384 288.149 863.382 291.776C861.719 297.616 852.845 301.159 851.764 307.156C850.808 312.46 856.688 317.417 855.714 322.809C854.679 328.597 846.258 331.795 843.154 336.918C840.627 341.076 841.815 345.839 840.503 350.27C838.914 355.611 833.403 360.332 826.183 362.554C825.952 362.633 825.721 362.712 825.472 362.772C823.282 360.974 820.783 357.819 818.732 354.405" stroke="black" stroke-width="4.72" stroke-miterlimit="10"/>
<path d="M858.393 274.53C838.904 295.509 829.754 339.746 826.174 362.564C825.883 364.49 825.62 366.26 825.393 367.84" stroke="black" stroke-width="4.72" stroke-miterlimit="10"/>
<path d="M860.19 380.688L851.21 433.605C850.998 435.056 850.278 436.385 849.178 437.354C848.079 438.324 846.671 438.872 845.205 438.9H798.385C796.907 438.868 795.49 438.308 794.388 437.322C793.287 436.335 792.575 434.988 792.38 433.522L784.112 380.688H860.19Z" stroke="black" stroke-width="4.72" stroke-miterlimit="10"/>
<path d="M868.708 374.793C868.453 378.128 865.811 380.697 862.643 380.697H781.807C778.67 380.697 776.051 378.184 775.751 374.885C775.404 371.115 778.217 367.849 781.807 367.849H862.643C866.199 367.849 868.999 371.051 868.708 374.793Z" stroke="black" stroke-width="4.72" stroke-miterlimit="10"/>
<path d="M813.439 361.834C816.908 358.387 821.153 350.718 823.037 344.449C824.585 339.279 821.855 333.961 821.231 328.662C820.252 320.346 824.377 311.434 820.03 303.913C817.61 299.718 812.898 296.733 810.071 292.714C804.861 285.322 806.861 275.851 803.531 267.734C799.475 257.796 786.689 250.889 774.134 251.79C775.334 256.51 776.147 261.32 776.564 266.172C776.938 270.51 776.042 275.343 777.026 279.57C778.619 286.348 787.137 290.45 788.181 297.394C789.105 303.534 783.46 309.277 784.389 315.527C785.386 322.231 793.465 325.936 796.454 331.873C798.879 336.696 797.743 342.222 799.004 347.341C800.584 353.735 806.173 359.353 813.439 361.834Z" stroke="black" stroke-width="4.72" stroke-miterlimit="10"/>
<path d="M781.797 259.579C800.505 283.881 809.309 335.116 812.746 361.566C813.042 363.876 813.305 365.959 813.513 367.84" stroke="black" stroke-width="4.72" stroke-miterlimit="10"/>
<path d="M810.071 292.714C810.071 292.714 811.355 271.6 822.15 265.179C832.946 258.757 832.733 294.756 832.733 294.756" stroke="black" stroke-width="4.72" stroke-miterlimit="10"/>
<path d="M821.846 309.355C821.846 309.355 819.638 297.274 823.504 285.401" stroke="black" stroke-width="4.72" stroke-miterlimit="10"/>
<path d="M1070.31 244.463H1029.9" stroke="black" stroke-width="4.72" stroke-linecap="round" stroke-linejoin="round"/>
<path d="M1070.97 233.148H1031.19" stroke="black" stroke-width="4.72" stroke-linecap="round" stroke-linejoin="round"/>
<path d="M0 439L1180.91 439.001" stroke="black" stroke-width="4.72" stroke-miterlimit="10"/>
<path fill-rule="evenodd" clip-rule="evenodd" d="M732.899 95.5819C733.464 95.5819 733.96 95.668 734.412 95.5632C735.249 95.3694 736.375 93.6645 736.31 92.7989C736.301 92.6663 736.257 92.4733 736.166 92.4203C735.746 92.1792 735.303 91.9779 734.869 91.7621C734.612 92.2057 733.814 91.7083 733.705 92.4431C733.66 92.7458 732.969 92.5524 733.153 93.0896C732.706 93.8841 733.033 94.7299 732.899 95.5819ZM730.69 92.1399C730.826 91.9071 731.003 91.6921 731.087 91.4457C731.392 90.5526 732.183 90.2093 732.943 89.9947C733.471 89.8456 734.033 89.6675 734.641 89.7102C736.02 89.8075 736.989 90.4549 737.679 91.6242C738.001 92.1693 738.303 92.7206 738.439 93.3344C738.53 93.7499 738.643 94.2312 738.52 94.6102C738.046 96.0818 737.237 97.317 735.706 97.9018C735.285 98.0625 734.846 98.1806 734.413 98.3111C734.344 98.3322 734.252 98.34 734.191 98.3102C733.081 97.7709 732.008 97.1567 731.364 96.0632C731.087 95.5939 730.83 95.0509 730.898 94.4606C730.98 93.7449 730.675 92.9919 731.102 92.3101C730.974 92.2571 730.846 92.2041 730.69 92.1399Z" fill="#3FBDF1"/>
<path fill-rule="evenodd" clip-rule="evenodd" d="M697.685 105.402C697.327 105.32 697.118 105.17 697.246 104.746C697.302 104.72 697.4 104.694 697.477 104.638C698.208 104.11 699.108 104.03 699.931 103.768C700.29 103.654 700.86 103.756 701.161 103.986C702.096 104.703 703.133 105.325 703.575 106.555C703.941 107.57 703.793 108.873 703.148 109.704C702.773 110.186 702.249 110.489 701.863 110.979C701.231 110.876 700.565 111.133 699.937 110.753C699.643 110.575 698.364 109.899 698.114 109.712C697.531 109.277 697.304 108.64 697.086 107.994C697.041 107.861 696.969 107.691 697.014 107.581C697.303 106.873 697.098 106.024 697.685 105.402Z" fill="#3FBDF1"/>
<path fill-rule="evenodd" clip-rule="evenodd" d="M748.71 82.1309C749.607 82.9871 751.107 83.4646 752.339 83.4178C752.93 83.3959 753.376 83.1884 753.768 82.7841C753.994 82.5501 754.227 82.3223 754.462 82.0862C754.328 81.9019 754.208 81.8 754.171 81.6732C753.996 81.0917 753.678 80.7268 753.02 80.6771C752.722 80.6547 752.44 80.46 752.142 80.3706C751.947 80.3122 751.605 80.214 751.557 80.2856C751.284 80.694 751.137 80.0537 750.78 80.3643C750.575 80.5574 750.231 80.88 749.886 81.2043C749.607 80.9848 749.387 80.8117 749.192 80.6588C748.484 81.0122 748.842 81.609 748.71 82.1309ZM755.721 82.869C755.937 82.944 756.068 82.9895 756.207 83.0376C756.095 83.3913 755.99 83.7227 755.884 84.0557C755.707 84.076 755.529 84.0971 755.28 84.1257C755.363 84.2363 755.414 84.3067 755.495 84.4148C755.112 84.8858 754.672 85.2474 753.993 85.2175C753.824 85.2101 753.647 85.278 753.48 85.3327C753.018 85.4847 752.568 85.5166 752.108 85.3095C751.951 85.2387 751.652 85.1583 751.602 85.2233C751.178 85.7705 750.83 85.0668 750.415 85.1616C750.241 85.2014 750.075 84.7458 749.703 84.7329C749.503 84.7263 749.327 84.4326 749.115 84.3133C748.868 84.1737 748.77 83.801 748.403 83.8548C748.231 83.2977 747.674 83.0405 747.394 82.5782C746.772 81.5494 746.771 80.0707 747.283 79.0753C747.736 78.1935 748.589 77.9355 749.374 78.5286C749.754 78.8165 750.043 79.0455 750.476 78.698C750.625 78.9345 750.764 78.8393 750.872 78.6698C751.045 78.4002 751.308 78.3845 751.565 78.4379C752.458 78.6255 753.365 78.8786 754.083 79.4171C754.715 79.8909 755.168 80.6037 755.7 81.211C755.657 81.7498 756.341 82.2589 755.721 82.869Z" fill="#3FBDF1"/>
<path fill-rule="evenodd" clip-rule="evenodd" d="M763.95 108.569C764.289 108.392 764.67 108.099 765.228 108.326C765.169 108.406 765.118 108.475 765.016 108.616C765.236 108.673 765.593 108.684 765.62 108.785C765.805 109.478 766.587 109.674 766.821 110.316C767.216 111.403 767.563 112.487 766.982 113.612C766.918 113.737 766.852 113.766 766.944 113.943C767.201 114.431 766.962 114.782 766.514 115.036C766.203 115.212 766.375 115.387 766.557 115.564C766.167 116.063 765.777 116.565 765.393 117.058H764.151C763.922 116.811 763.64 116.513 763.363 116.21C763.115 115.938 762.789 115.768 762.564 115.441C762.056 114.699 761.959 113.898 762.13 113.073C762.262 112.432 762.577 111.83 762.735 111.192C762.838 110.775 762.94 110.44 763.356 110.212C763.524 110.121 763.639 109.786 763.634 109.565C763.627 109.241 763.852 109.12 763.993 108.915C764.039 108.848 763.97 108.702 763.95 108.569Z" fill="#3FBDF1"/>
<path fill-rule="evenodd" clip-rule="evenodd" d="M775.393 73.1143C775.34 73.0613 775.263 73.0178 775.237 72.9536C775.053 72.4847 774.557 72.563 774.213 72.4371C774.028 72.3695 773.702 72.6756 773.446 72.8227C773.332 72.8881 773.104 73.2626 772.952 73.5339C772.834 73.7447 772.705 74.0889 772.547 74.1092C772.19 74.156 772.263 74.3544 772.23 74.5673C772.208 74.7139 772.11 74.849 772.054 74.972C772.845 75.7764 773.59 75.4392 774.405 75.0606C775.294 74.6477 775.449 73.9576 775.393 73.1143ZM773.307 77.0761C773.137 77.3255 772.986 77.5433 772.832 77.7699C772.73 77.6755 772.64 77.5301 772.574 77.54C771.769 77.6606 771.503 76.8864 770.962 76.577C770.901 76.5422 770.859 76.3219 770.896 76.29C771.459 75.8095 770.859 75.4545 770.784 75.0391C770.695 75.119 770.616 75.1907 770.536 75.2615C770.509 75.2346 770.458 75.2068 770.459 75.1816C770.486 74.6891 770.218 74.1527 770.713 73.7265C770.826 73.6291 770.804 73.3918 770.888 73.2431C771.102 72.862 771.159 72.3588 771.551 72.1198C771.953 71.8737 771.796 71.373 772.197 71.0843C772.878 70.5939 773.941 70.3453 774.739 70.6432C775.896 71.076 776.634 71.957 777.065 73.0223C777.412 73.8797 777.576 74.8514 777.415 75.7925C777.321 76.3405 776.839 76.717 776.412 77.0463C776.283 77.1449 775.962 76.9933 775.661 76.9452C775.681 77.0231 775.684 77.1917 775.762 77.3122C775.882 77.4969 775.93 77.6701 775.699 77.7442C775.465 77.82 775.378 77.6577 775.393 77.4265C775.395 77.3888 775.29 77.3441 775.173 77.2567C774.996 77.4042 774.805 77.5636 774.575 77.7554C774.539 77.6307 774.504 77.5085 774.437 77.2774C774.14 77.5529 773.873 77.8001 773.481 78.1626C773.407 77.7011 773.36 77.4046 773.307 77.0761Z" fill="#3FBDF1"/>
<path fill-rule="evenodd" clip-rule="evenodd" d="M716.404 88.7275C716.591 88.8853 716.674 88.9553 716.775 89.0407C716.847 88.8969 716.9 88.6447 716.995 88.6281C717.236 88.5859 717.558 88.5606 717.736 88.6865C718.269 89.0655 718.829 89.4561 719.225 89.9631C719.599 90.444 719.848 91.0574 720.017 91.6514C720.114 91.9952 720.059 92.3891 719.858 92.8045C719.446 93.6549 719.032 94.4178 718.172 94.9182C717.791 95.1394 717.363 95.1493 717.003 95.3726C716.86 95.4612 716.687 95.4997 716.521 95.5635C716.459 95.4542 716.38 95.3129 716.3 95.1721C716.173 95.3543 716.087 95.3328 715.892 95.1982C715.541 94.9559 714.86 94.3362 714.565 94.0947C713.614 93.3185 714.162 92.353 714.203 91.4679C714.213 91.2459 714.568 91.0396 714.777 90.8118C715.554 91.2293 715.955 91.8962 716.227 92.633C716.989 92.5382 717.112 91.8274 717.53 91.4314C717.623 91.344 717.56 91.0922 717.578 90.7323C717.212 91.0972 716.97 91.3395 716.767 91.5424C716.194 91.5018 716.263 90.8114 715.78 90.7695C715.772 90.3222 715.696 89.8604 715.783 89.4325C715.833 89.1894 716.151 89.0013 716.404 88.7275Z" fill="#3FBDF1"/>
<path fill-rule="evenodd" clip-rule="evenodd" d="M759.564 59.3639C759.887 59.0404 760.127 58.8006 760.407 58.521H761.807C761.953 57.9101 761.501 58.1573 761.21 58.0766C761.241 57.9979 761.25 57.9038 761.301 57.8595C761.658 57.553 761.13 57.4337 761.18 57.1222C761.419 56.5544 762.085 56.4508 762.586 56.1414C762.727 56.0536 763.003 56.1021 763.184 56.1733C764.101 56.5353 764.433 57.3579 764.802 58.1872C765.04 58.7202 764.819 59.3498 765.234 59.8158C765.07 60.4255 765.006 61.0899 764.712 61.6292C764.4 62.202 763.732 62.5139 763.105 62.5764C762.758 62.6112 762.455 63.0192 762.113 62.7546C761.824 62.5301 761.416 62.6564 761.153 62.3014C760.965 62.0483 760.549 62.0314 760.435 61.589C760.38 61.3707 759.962 61.3359 759.774 60.9892C759.47 60.4301 759.695 59.8962 759.564 59.3639Z" fill="#3FBDF1"/>
<path fill-rule="evenodd" clip-rule="evenodd" d="M755.594 94.7494C755.735 95.3094 755.858 95.7803 755.968 96.2542C755.993 96.3606 756.02 96.5296 755.964 96.5814C755.467 97.042 755.929 97.4206 756.05 97.8273C756.919 97.8414 756.895 97.7867 757.341 97.1517C757.872 96.3958 757.781 95.5736 757.766 94.7506C757.763 94.6011 757.621 94.4209 757.493 94.3132C757.238 94.0978 756.819 94.4304 756.587 94.0717L756.35 94.4333C755.911 94.1401 755.8 94.6106 755.594 94.7494ZM754.562 95.4742C754.426 95.2112 754.283 94.9325 754.165 94.7046C754.293 94.0295 755.061 94.2163 755.311 93.6919C755.557 93.1771 756.306 93.3966 756.707 92.8772C756.548 92.7703 756.394 92.6672 756.237 92.5616C756.259 92.533 756.291 92.453 756.334 92.4452C757.095 92.3064 757.65 92.7132 758.168 93.1754C758.599 93.5598 758.846 94.0854 759.17 94.5506C759.352 94.8119 759.035 95.0526 759.31 95.2191C759.556 95.3686 759.632 95.6117 759.586 95.8905C759.535 96.1966 759.824 96.5263 759.772 96.6854C759.65 97.0598 759.64 97.4516 759.515 97.8149C759.28 98.4929 758.936 99.1105 758.405 99.608C758.1 99.8933 757.671 99.9894 757.134 99.8954C755.838 99.6688 755.823 99.6825 755.238 99.0401C754.78 98.5368 754.483 97.9619 754.36 97.2582C754.29 96.8589 754.053 96.5068 754.334 96.1117C753.957 95.7497 754.527 95.7584 754.562 95.4742Z" fill="#3FBDF1"/>
<path fill-rule="evenodd" clip-rule="evenodd" d="M724.276 64.8359C725.304 65.415 725.541 65.8979 724.976 66.7802C724.684 67.2354 725.045 67.7482 724.633 68.1218C724.573 68.1769 724.733 68.4784 724.794 68.6648C724.962 69.1772 725.129 69.2232 725.686 69.0761C726.751 68.7961 727.255 68.0431 727.511 67.0225C727.115 66.9098 726.715 66.8022 726.319 66.6829C725.836 66.5375 726.012 65.9945 725.814 65.7451C726.041 65.5173 726.292 65.2671 726.542 65.0169C727.23 64.6322 727.658 65.3843 728.285 65.5546C728.746 66.2981 729.389 66.943 729.323 67.9391C729.238 69.1966 728.696 70.245 727.322 70.7482C726.176 71.1691 725.269 70.9926 724.285 70.1182C723.686 69.5856 723.197 69.0368 723.176 68.0907C723.147 66.8415 723.386 65.7439 724.276 64.8359Z" fill="#3FBDF1"/>
<path fill-rule="evenodd" clip-rule="evenodd" d="M722.699 111.142C721.719 111.43 721.147 110.77 720.488 110.376C719.884 110.014 719.805 109.302 719.626 108.717C719.461 108.175 719.794 107.612 719.991 107.087C720.156 106.646 720.429 106.244 720.653 105.827C720.55 105.79 720.42 105.742 720.262 105.685C720.429 105.51 720.576 105.356 720.758 105.164C720.524 105.121 720.318 105.084 719.98 105.023C720.198 104.86 720.353 104.65 720.493 104.659C720.884 104.686 721.266 104.55 721.678 104.775C722.725 105.346 723.26 106.302 723.646 107.328C724.187 108.768 723.898 110.077 722.699 111.142Z" fill="#3FBDF1"/>
<path fill-rule="evenodd" clip-rule="evenodd" d="M735.244 116.501C735.136 116.718 735.044 116.903 734.937 117.118C735.68 117.882 735.987 118.802 735.868 119.868C735.84 120.121 735.847 120.339 735.658 120.576C735.299 121.026 735.25 121.682 734.554 121.92C734.252 122.023 733.923 122.108 733.72 122.004C733.155 121.713 732.506 121.489 732.156 120.908C731.98 120.618 731.818 120.317 731.781 119.935C731.659 118.681 732.168 117.64 732.806 116.642C732.95 116.417 733.192 116.255 733.481 116.124C733.814 115.974 734.02 115.852 734.354 116.1C734.596 116.282 734.917 116.36 735.244 116.501Z" fill="#3FBDF1"/>
<path fill-rule="evenodd" clip-rule="evenodd" d="M775.972 90.6242C775.526 90.2808 775.264 89.6612 774.568 89.6869C774.394 89.3849 774.118 89.1 774.066 88.7781C773.939 87.9982 774.122 87.3019 774.928 86.92C775.023 86.8749 775.088 86.7659 775.192 86.6624C775.051 86.6147 774.926 86.5721 774.913 86.5679C775.109 86.3716 775.351 86.1297 775.593 85.8882C775.541 85.8265 775.488 85.7652 775.436 85.7035C775.54 85.6894 775.648 85.6497 775.746 85.6666C776.199 85.7449 776.722 85.4363 777.106 85.8994C777.607 86.5013 777.976 87.1565 778.122 87.9485C778.317 88.9997 777.301 90.162 776.531 90.5368C776.334 90.6321 776.09 90.2469 775.972 90.6242Z" fill="#3FBDF1"/>
<path fill-rule="evenodd" clip-rule="evenodd" d="M746.031 104.376C746.031 104.687 746.011 104.841 746.034 104.988C746.152 105.754 745.512 106.025 745.067 106.363C744.625 106.698 744.202 106.206 743.788 106.083C743.402 105.969 743.083 105.598 742.758 105.315C742.209 104.837 742.004 103.703 742.351 103.024C742.431 102.87 742.346 102.607 742.713 102.572C742.932 102.551 743.139 102.202 743.315 101.973C743.777 101.376 744.181 101.307 744.675 101.829C744.998 102.17 745.372 102.449 745.602 102.906C745.869 103.436 746.168 103.917 746.031 104.376Z" fill="#3FBDF1"/>
<path fill-rule="evenodd" clip-rule="evenodd" d="M733.721 78.6585C734.21 79.1833 734.754 79.6369 735.01 80.3754C735.328 81.2899 735.155 81.7891 734.377 82.3221C733.491 82.9298 732.898 82.8246 732.124 82.0355C732.019 81.9282 731.912 81.823 731.827 81.7385C731.699 81.3425 731.993 80.8857 731.572 80.5763C731.338 79.5333 732.043 78.6788 733.155 78.6589C733.343 78.6556 733.53 78.6585 733.721 78.6585Z" fill="#3FBDF1"/>
<path fill-rule="evenodd" clip-rule="evenodd" d="M744.223 67.0475C744.426 66.8889 744.551 66.7919 744.675 66.695C744.53 66.5728 744.384 66.4502 744.242 66.3309C744.3 66.2663 744.37 66.188 744.468 66.0791C744.212 66.0228 743.984 65.9731 743.711 65.9134C744.031 65.054 744.817 64.9914 745.434 64.7106C745.554 64.6559 745.814 64.8145 745.963 64.933C746.567 65.4114 747.008 66.0228 747.314 66.7286C747.354 66.8218 747.408 66.9903 747.37 67.0231C746.836 67.4783 747.54 68.3593 746.841 68.6641C746.704 68.7238 746.396 68.3721 746.028 68.3464C746.178 68.51 746.326 68.6741 746.497 68.8609C746.222 69.0427 745.964 69.2316 745.686 69.3877C745.601 69.4362 745.465 69.4043 745.354 69.3919C745.288 69.3844 745.167 69.3343 745.17 69.3182C745.261 68.701 744.525 69.1595 744.443 68.7544C744.402 68.554 744.252 68.3705 744.233 68.1716C744.198 67.8005 744.223 67.424 744.223 67.0475Z" fill="#3FBDF1"/>
<path fill-rule="evenodd" clip-rule="evenodd" d="M745.827 50.497V50H746.833C747.343 50.7663 748.042 51.4924 747.795 52.6467C747.633 52.6571 747.431 52.6695 747.147 52.6873V51.7554C746.966 51.7898 746.827 51.7749 746.776 51.8349C746.691 51.9347 746.682 52.0963 746.606 52.2073C746.465 52.4119 746.388 52.3659 746.199 52.0623C746.071 51.8569 745.896 51.6804 745.72 51.4642C745.952 51.3573 746.105 51.2869 746.269 51.2115C745.793 50.9767 745.801 50.985 746.193 50.5778C746.261 50.5074 746.223 50.3347 746.241 50.1147C746.073 50.2705 745.994 50.3425 745.827 50.497Z" fill="#3FBDF1"/>
<path fill-rule="evenodd" clip-rule="evenodd" d="M1086.9 359.582C1087.46 359.582 1087.96 359.668 1088.41 359.563C1089.25 359.369 1090.37 357.665 1090.31 356.799C1090.3 356.666 1090.26 356.473 1090.17 356.42C1089.75 356.179 1089.3 355.978 1088.87 355.762C1088.61 356.206 1087.81 355.708 1087.7 356.443C1087.66 356.746 1086.97 356.552 1087.15 357.09C1086.71 357.884 1087.03 358.73 1086.9 359.582ZM1084.69 356.14C1084.83 355.907 1085 355.692 1085.09 355.446C1085.39 354.553 1086.18 354.209 1086.94 353.995C1087.47 353.846 1088.03 353.668 1088.64 353.71C1090.02 353.808 1090.99 354.455 1091.68 355.624C1092 356.169 1092.3 356.721 1092.44 357.334C1092.53 357.75 1092.64 358.231 1092.52 358.61C1092.05 360.082 1091.24 361.317 1089.71 361.902C1089.28 362.063 1088.85 362.181 1088.41 362.311C1088.34 362.332 1088.25 362.34 1088.19 362.31C1087.08 361.771 1086.01 361.157 1085.36 360.063C1085.09 359.594 1084.83 359.051 1084.9 358.461C1084.98 357.745 1084.67 356.992 1085.1 356.31C1084.97 356.257 1084.85 356.204 1084.69 356.14Z" fill="#3FBDF1"/>
<path fill-rule="evenodd" clip-rule="evenodd" d="M1051.69 369.402C1051.33 369.32 1051.12 369.17 1051.25 368.746C1051.3 368.72 1051.4 368.694 1051.48 368.638C1052.21 368.11 1053.11 368.03 1053.93 367.768C1054.29 367.654 1054.86 367.756 1055.16 367.986C1056.1 368.703 1057.13 369.325 1057.58 370.555C1057.94 371.57 1057.79 372.873 1057.15 373.704C1056.77 374.186 1056.25 374.489 1055.86 374.979C1055.23 374.876 1054.57 375.133 1053.94 374.753C1053.64 374.575 1052.36 373.899 1052.11 373.712C1051.53 373.277 1051.3 372.64 1051.09 371.994C1051.04 371.861 1050.97 371.691 1051.01 371.581C1051.3 370.873 1051.1 370.024 1051.69 369.402Z" fill="#3FBDF1"/>
<path fill-rule="evenodd" clip-rule="evenodd" d="M1102.71 346.131C1103.61 346.987 1105.11 347.465 1106.34 347.418C1106.93 347.396 1107.38 347.188 1107.77 346.784C1107.99 346.55 1108.23 346.322 1108.46 346.086C1108.33 345.902 1108.21 345.8 1108.17 345.673C1108 345.092 1107.68 344.727 1107.02 344.677C1106.72 344.655 1106.44 344.46 1106.14 344.371C1105.95 344.312 1105.6 344.214 1105.56 344.286C1105.28 344.694 1105.14 344.054 1104.78 344.364C1104.57 344.557 1104.23 344.88 1103.89 345.204C1103.61 344.985 1103.39 344.812 1103.19 344.659C1102.48 345.012 1102.84 345.609 1102.71 346.131ZM1109.72 346.869C1109.94 346.944 1110.07 346.99 1110.21 347.038C1110.09 347.391 1109.99 347.723 1109.88 348.056C1109.71 348.076 1109.53 348.097 1109.28 348.126C1109.36 348.236 1109.41 348.307 1109.49 348.415C1109.11 348.886 1108.67 349.247 1107.99 349.218C1107.82 349.21 1107.65 349.278 1107.48 349.333C1107.02 349.485 1106.57 349.517 1106.11 349.309C1105.95 349.239 1105.65 349.158 1105.6 349.223C1105.18 349.77 1104.83 349.067 1104.42 349.162C1104.24 349.201 1104.08 348.746 1103.7 348.733C1103.5 348.726 1103.33 348.433 1103.12 348.313C1102.87 348.174 1102.77 347.801 1102.4 347.855C1102.23 347.298 1101.67 347.04 1101.39 346.578C1100.77 345.549 1100.77 344.071 1101.28 343.075C1101.74 342.194 1102.59 341.935 1103.37 342.529C1103.75 342.816 1104.04 343.046 1104.48 342.698C1104.63 342.935 1104.76 342.839 1104.87 342.67C1105.05 342.4 1105.31 342.384 1105.56 342.438C1106.46 342.626 1107.36 342.879 1108.08 343.417C1108.72 343.891 1109.17 344.604 1109.7 345.211C1109.66 345.75 1110.34 346.259 1109.72 346.869Z" fill="#3FBDF1"/>
<path fill-rule="evenodd" clip-rule="evenodd" d="M1117.95 372.569C1118.29 372.392 1118.67 372.099 1119.23 372.326C1119.17 372.406 1119.12 372.475 1119.02 372.616C1119.24 372.673 1119.59 372.684 1119.62 372.785C1119.8 373.478 1120.59 373.674 1120.82 374.316C1121.22 375.403 1121.56 376.487 1120.98 377.612C1120.92 377.737 1120.85 377.766 1120.94 377.943C1121.2 378.431 1120.96 378.782 1120.51 379.036C1120.2 379.212 1120.38 379.387 1120.56 379.564C1120.17 380.063 1119.78 380.565 1119.39 381.058H1118.15C1117.92 380.811 1117.64 380.513 1117.36 380.21C1117.11 379.938 1116.79 379.768 1116.56 379.441C1116.06 378.699 1115.96 377.898 1116.13 377.073C1116.26 376.432 1116.58 375.83 1116.74 375.192C1116.84 374.775 1116.94 374.44 1117.36 374.212C1117.52 374.121 1117.64 373.786 1117.63 373.565C1117.63 373.241 1117.85 373.12 1117.99 372.915C1118.04 372.848 1117.97 372.702 1117.95 372.569Z" fill="#3FBDF1"/>
<path fill-rule="evenodd" clip-rule="evenodd" d="M1070.4 352.728C1070.59 352.885 1070.67 352.955 1070.78 353.041C1070.85 352.897 1070.9 352.645 1070.99 352.628C1071.24 352.586 1071.56 352.561 1071.74 352.687C1072.27 353.066 1072.83 353.456 1073.22 353.963C1073.6 354.444 1073.85 355.057 1074.02 355.651C1074.11 355.995 1074.06 356.389 1073.86 356.805C1073.45 357.655 1073.03 358.418 1072.17 358.918C1071.79 359.139 1071.36 359.149 1071 359.373C1070.86 359.461 1070.69 359.5 1070.52 359.564C1070.46 359.454 1070.38 359.313 1070.3 359.172C1070.17 359.354 1070.09 359.333 1069.89 359.198C1069.54 358.956 1068.86 358.336 1068.56 358.095C1067.61 357.319 1068.16 356.353 1068.2 355.468C1068.21 355.246 1068.57 355.04 1068.78 354.812C1069.55 355.229 1069.96 355.896 1070.23 356.633C1070.99 356.538 1071.11 355.827 1071.53 355.431C1071.62 355.344 1071.56 355.092 1071.58 354.732C1071.21 355.097 1070.97 355.339 1070.77 355.542C1070.19 355.502 1070.26 354.811 1069.78 354.77C1069.77 354.322 1069.7 353.86 1069.78 353.432C1069.83 353.189 1070.15 353.001 1070.4 352.728Z" fill="#3FBDF1"/>
<path fill-rule="evenodd" clip-rule="evenodd" d="M1113.56 323.364C1113.89 323.04 1114.13 322.801 1114.41 322.521H1115.81C1115.95 321.91 1115.5 322.157 1115.21 322.077C1115.24 321.998 1115.25 321.904 1115.3 321.86C1115.66 321.553 1115.13 321.434 1115.18 321.122C1115.42 320.554 1116.09 320.451 1116.59 320.141C1116.73 320.054 1117 320.102 1117.18 320.173C1118.1 320.535 1118.43 321.358 1118.8 322.187C1119.04 322.72 1118.82 323.35 1119.23 323.816C1119.07 324.426 1119.01 325.09 1118.71 325.629C1118.4 326.202 1117.73 326.514 1117.11 326.576C1116.76 326.611 1116.45 327.019 1116.11 326.755C1115.82 326.53 1115.42 326.656 1115.15 326.301C1114.97 326.048 1114.55 326.031 1114.44 325.589C1114.38 325.371 1113.96 325.336 1113.77 324.989C1113.47 324.43 1113.7 323.896 1113.56 323.364Z" fill="#3FBDF1"/>
<path fill-rule="evenodd" clip-rule="evenodd" d="M1109.59 358.749C1109.73 359.309 1109.86 359.78 1109.97 360.254C1109.99 360.361 1110.02 360.53 1109.96 360.581C1109.47 361.042 1109.93 361.421 1110.05 361.827C1110.92 361.841 1110.9 361.787 1111.34 361.152C1111.87 360.396 1111.78 359.574 1111.77 358.751C1111.76 358.601 1111.62 358.421 1111.49 358.313C1111.24 358.098 1110.82 358.43 1110.59 358.072L1110.35 358.433C1109.91 358.14 1109.8 358.611 1109.59 358.749ZM1108.56 359.474C1108.43 359.211 1108.28 358.932 1108.17 358.705C1108.29 358.029 1109.06 358.216 1109.31 357.692C1109.56 357.177 1110.31 357.397 1110.71 356.877C1110.55 356.77 1110.39 356.667 1110.24 356.562C1110.26 356.533 1110.29 356.453 1110.33 356.445C1111.1 356.306 1111.65 356.713 1112.17 357.175C1112.6 357.56 1112.85 358.085 1113.17 358.551C1113.35 358.812 1113.04 359.053 1113.31 359.219C1113.56 359.369 1113.63 359.612 1113.59 359.891C1113.53 360.197 1113.82 360.526 1113.77 360.685C1113.65 361.06 1113.64 361.452 1113.51 361.815C1113.28 362.493 1112.94 363.111 1112.41 363.608C1112.1 363.893 1111.67 363.989 1111.13 363.895C1109.84 363.669 1109.82 363.683 1109.24 363.04C1108.78 362.537 1108.48 361.962 1108.36 361.258C1108.29 360.859 1108.05 360.507 1108.33 360.112C1107.96 359.75 1108.53 359.758 1108.56 359.474Z" fill="#3FBDF1"/>
<path fill-rule="evenodd" clip-rule="evenodd" d="M1078.28 328.836C1079.3 329.415 1079.54 329.898 1078.98 330.78C1078.68 331.235 1079.04 331.748 1078.63 332.122C1078.57 332.177 1078.73 332.478 1078.79 332.665C1078.96 333.177 1079.13 333.223 1079.69 333.076C1080.75 332.796 1081.25 332.043 1081.51 331.023C1081.11 330.91 1080.72 330.802 1080.32 330.683C1079.84 330.537 1080.01 329.994 1079.81 329.745C1080.04 329.517 1080.29 329.267 1080.54 329.017C1081.23 328.632 1081.66 329.384 1082.29 329.555C1082.75 330.298 1083.39 330.943 1083.32 331.939C1083.24 333.197 1082.7 334.245 1081.32 334.748C1080.18 335.169 1079.27 334.993 1078.29 334.118C1077.69 333.586 1077.2 333.037 1077.18 332.091C1077.15 330.841 1077.39 329.744 1078.28 328.836Z" fill="#3FBDF1"/>
<path fill-rule="evenodd" clip-rule="evenodd" d="M1076.7 375.142C1075.72 375.43 1075.15 374.77 1074.49 374.376C1073.88 374.014 1073.81 373.302 1073.63 372.717C1073.46 372.175 1073.79 371.612 1073.99 371.087C1074.16 370.646 1074.43 370.244 1074.65 369.827C1074.55 369.79 1074.42 369.742 1074.26 369.685C1074.43 369.51 1074.58 369.356 1074.76 369.164C1074.52 369.121 1074.32 369.084 1073.98 369.023C1074.2 368.86 1074.35 368.65 1074.49 368.659C1074.88 368.686 1075.27 368.55 1075.68 368.775C1076.72 369.346 1077.26 370.302 1077.65 371.328C1078.19 372.768 1077.9 374.077 1076.7 375.142Z" fill="#3FBDF1"/>
<path fill-rule="evenodd" clip-rule="evenodd" d="M1089.24 380.501C1089.14 380.718 1089.04 380.903 1088.94 381.118C1089.68 381.882 1089.99 382.802 1089.87 383.868C1089.84 384.121 1089.85 384.339 1089.66 384.576C1089.3 385.026 1089.25 385.682 1088.55 385.92C1088.25 386.023 1087.92 386.108 1087.72 386.004C1087.16 385.713 1086.51 385.489 1086.16 384.908C1085.98 384.618 1085.82 384.317 1085.78 383.935C1085.66 382.681 1086.17 381.64 1086.81 380.642C1086.95 380.417 1087.19 380.255 1087.48 380.124C1087.81 379.974 1088.02 379.852 1088.35 380.1C1088.6 380.282 1088.92 380.36 1089.24 380.501Z" fill="#3FBDF1"/>
<path fill-rule="evenodd" clip-rule="evenodd" d="M1100.03 368.376C1100.03 368.687 1100.01 368.841 1100.03 368.988C1100.15 369.754 1099.51 370.025 1099.07 370.363C1098.62 370.698 1098.2 370.206 1097.79 370.083C1097.4 369.969 1097.08 369.598 1096.76 369.315C1096.21 368.837 1096 367.703 1096.35 367.024C1096.43 366.87 1096.35 366.607 1096.71 366.572C1096.93 366.551 1097.14 366.202 1097.32 365.973C1097.78 365.376 1098.18 365.307 1098.68 365.829C1099 366.17 1099.37 366.449 1099.6 366.906C1099.87 367.436 1100.17 367.917 1100.03 368.376Z" fill="#3FBDF1"/>
<path fill-rule="evenodd" clip-rule="evenodd" d="M1087.72 342.659C1088.21 343.183 1088.75 343.637 1089.01 344.375C1089.33 345.29 1089.15 345.789 1088.38 346.322C1087.49 346.93 1086.9 346.825 1086.12 346.036C1086.02 345.928 1085.91 345.823 1085.83 345.739C1085.7 345.343 1085.99 344.886 1085.57 344.576C1085.34 343.533 1086.04 342.679 1087.16 342.659C1087.34 342.656 1087.53 342.659 1087.72 342.659Z" fill="#3FBDF1"/>
<path fill-rule="evenodd" clip-rule="evenodd" d="M1098.22 331.048C1098.43 330.889 1098.55 330.792 1098.67 330.695C1098.53 330.573 1098.38 330.45 1098.24 330.331C1098.3 330.266 1098.37 330.188 1098.47 330.079C1098.21 330.023 1097.98 329.973 1097.71 329.913C1098.03 329.054 1098.82 328.991 1099.43 328.711C1099.55 328.656 1099.81 328.815 1099.96 328.933C1100.57 329.411 1101.01 330.023 1101.31 330.729C1101.35 330.822 1101.41 330.99 1101.37 331.023C1100.84 331.478 1101.54 332.359 1100.84 332.664C1100.7 332.724 1100.4 332.372 1100.03 332.346C1100.18 332.51 1100.33 332.674 1100.5 332.861C1100.22 333.043 1099.96 333.232 1099.69 333.388C1099.6 333.436 1099.46 333.404 1099.35 333.392C1099.29 333.384 1099.17 333.334 1099.17 333.318C1099.26 332.701 1098.53 333.16 1098.44 332.754C1098.4 332.554 1098.25 332.37 1098.23 332.172C1098.2 331.801 1098.22 331.424 1098.22 331.048Z" fill="#3FBDF1"/>
<path fill-rule="evenodd" clip-rule="evenodd" d="M1099.83 314.497V314H1100.83C1101.34 314.766 1102.04 315.492 1101.79 316.647C1101.63 316.657 1101.43 316.67 1101.15 316.687V315.755C1100.97 315.79 1100.83 315.775 1100.78 315.835C1100.69 315.935 1100.68 316.096 1100.61 316.207C1100.46 316.412 1100.39 316.366 1100.2 316.062C1100.07 315.857 1099.9 315.68 1099.72 315.464C1099.95 315.357 1100.11 315.287 1100.27 315.212C1099.79 314.977 1099.8 314.985 1100.19 314.578C1100.26 314.507 1100.22 314.335 1100.24 314.115C1100.07 314.27 1099.99 314.343 1099.83 314.497Z" fill="#3FBDF1"/>
<path d="M965.203 37.4636C965.086 36.1291 964.647 34.8428 963.923 33.716C963.198 32.5891 962.211 31.6555 961.045 30.9956C955.174 27.7108 947.65 34.091 949.751 40.4112C950.49 42.6103 952.25 44.2088 954.255 45.2714C957.95 47.2349 963.124 47.1194 964.879 42.6935L964.907 42.6242C964.907 42.6242 965.674 46.5003 969.743 46.6435C970.269 46.6806 970.796 46.6017 971.287 46.4124C971.779 46.2231 972.223 45.928 972.588 45.5481C972.953 45.1681 973.23 44.7125 973.399 44.2137C973.568 43.7148 973.626 43.1847 973.568 42.6611C977.069 46.2647 977.984 51.6516 976.339 56.3225C976.64 55.4816 978.649 55.6341 979.231 55.8281C981.735 56.7013 983.07 59.6627 982.515 62.176C981.993 64.5276 980.178 66.5142 978.201 67.9556C978.032 68.0725 977.894 68.2286 977.799 68.4105C977.704 68.5923 977.654 68.7945 977.654 68.9997C977.654 69.205 977.704 69.4072 977.799 69.589C977.894 69.7708 978.032 69.9269 978.201 70.0438C980.083 71.254 982.314 71.8064 984.543 71.6146C987.247 71.3922 989.751 70.105 991.506 68.0362C993.261 65.9673 994.123 63.2862 993.902 60.5821L993.874 60.4527C995.658 60.079 997.266 59.1184 998.442 57.7242C999.617 56.3299 1000.29 54.5823 1000.36 52.76C1000.42 50.9377 999.879 49.1456 998.808 47.6694C997.738 46.1933 996.204 45.1181 994.451 44.6154C994.977 43.6649 995.209 42.5794 995.116 41.4969C994.989 40.0283 994.287 38.6697 993.162 37.7176C992.037 36.7654 990.581 36.2971 989.111 36.4149" stroke="black" stroke-width="4.72" stroke-linecap="round" stroke-linejoin="round"/>
</svg>
