<svg width="270" height="350" viewBox="0 0 270 350" fill="none" xmlns="http://www.w3.org/2000/svg">
<g clip-path="url(#clip0_1_1823)">
<path d="M134.08 89.8331V82.8331H141.08V89.8331H134.08Z" fill="#F5BD33"/>
<path d="M134.08 221.083V214.083H141.08V221.083H134.08Z" fill="#3FBDF1"/>
<path d="M134.08 46.0835V39.0835H141.08V46.0835H134.08Z" fill="#3FBDF1"/>
<path d="M134.08 177.333V170.333H141.08V177.333H134.08Z" fill="#F5BD33"/>
<path d="M134.08 133.583V126.583H141.08V133.583H134.08Z" fill="#3FBDF1"/>
<path d="M134.08 264.833V257.833H141.08V264.833H134.08Z" fill="#F5BD33"/>
<path d="M134.08 308.583V301.583H141.08V308.583H134.08Z" fill="#3FBDF1"/>
<path d="M2.82959 89.8331V82.8331H9.82959V89.8331H2.82959Z" fill="#3FBDF1"/>
<path d="M2.82959 221.083V214.083H9.82959V221.083H2.82959Z" fill="#F5BD33"/>
<path d="M2.82959 46.0835V39.0835H9.82959V46.0835H2.82959Z" fill="#F5BD33"/>
<path d="M2.82959 177.333V170.333H9.82959V177.333H2.82959Z" fill="#3FBDF1"/>
<path d="M2.82959 133.583V126.583H9.82959V133.583H2.82959Z" fill="#F5BD33"/>
<path d="M2.82959 264.833V257.833H9.82959V264.833H2.82959Z" fill="#3FBDF1"/>
<path d="M2.82959 308.583V301.583H9.82959V308.583H2.82959Z" fill="#F5BD33"/>
<path d="M221.58 89.8331V82.8331H228.58V89.8331H221.58Z" fill="#F5BD33"/>
<path d="M221.58 221.083V214.083H228.58V221.083H221.58Z" fill="#3FBDF1"/>
<path d="M221.58 46.0835V39.0835H228.58V46.0835H221.58Z" fill="#3FBDF1"/>
<path d="M221.58 177.333V170.333H228.58V177.333H221.58Z" fill="#F5BD33"/>
<path d="M221.58 133.583V126.583H228.58V133.583H221.58Z" fill="#3FBDF1"/>
<path d="M221.58 264.833V257.833H228.58V264.833H221.58Z" fill="#F5BD33"/>
<path d="M221.58 308.583V301.583H228.58V308.583H221.58Z" fill="#3FBDF1"/>
<path d="M90.3296 89.8331V82.8331H97.3296V89.8331H90.3296Z" fill="#3FBDF1"/>
<path d="M90.3296 221.083V214.083H97.3296V221.083H90.3296Z" fill="#F5BD33"/>
<path d="M90.3296 46.0835V39.0835H97.3296V46.0835H90.3296Z" fill="#F5BD33"/>
<path d="M90.3296 177.333V170.333H97.3296V177.333H90.3296Z" fill="#3FBDF1"/>
<path d="M90.3296 133.583V126.583H97.3296V133.583H90.3296Z" fill="#F5BD33"/>
<path d="M90.3296 264.833V257.833H97.3296V264.833H90.3296Z" fill="#3FBDF1"/>
<path d="M90.3296 308.583V301.583H97.3296V308.583H90.3296Z" fill="#F5BD33"/>
<path d="M177.83 89.8331V82.8331H184.83V89.8331H177.83Z" fill="#3FBDF1"/>
<path d="M177.83 221.083V214.083H184.83V221.083H177.83Z" fill="#F5BD33"/>
<path d="M177.83 46.0835V39.0835H184.83V46.0835H177.83Z" fill="#F5BD33"/>
<path d="M177.83 177.333V170.333H184.83V177.333H177.83Z" fill="#3FBDF1"/>
<path d="M177.83 133.583V126.583H184.83V133.583H177.83Z" fill="#F5BD33"/>
<path d="M177.83 264.833V257.833H184.83V264.833H177.83Z" fill="#3FBDF1"/>
<path d="M177.83 308.583V301.583H184.83V308.583H177.83Z" fill="#F5BD33"/>
<path d="M46.5796 89.8331V82.8331H53.5796V89.8331H46.5796Z" fill="#F5BD33"/>
<path d="M46.5796 221.083V214.083H53.5796V221.083H46.5796Z" fill="#3FBDF1"/>
<path d="M46.5796 46.0835V39.0835H53.5796V46.0835H46.5796Z" fill="#3FBDF1"/>
<path d="M46.5796 177.333V170.333H53.5796V177.333H46.5796Z" fill="#F5BD33"/>
<path d="M46.5796 133.583V126.583H53.5796V133.583H46.5796Z" fill="#3FBDF1"/>
<path d="M46.5796 264.833V257.833H53.5796V264.833H46.5796Z" fill="#F5BD33"/>
<path d="M46.5796 308.583V301.583H53.5796V308.583H46.5796Z" fill="#3FBDF1"/>
<path d="M9.82959 350H2.82959V346.5H9.82959V350Z" fill="#3FBDF1"/>
<path d="M53.5796 350H46.5796V346.5H53.5796V350Z" fill="#F5BD33"/>
<path d="M97.3296 350H90.3296V346.5H97.3296V350Z" fill="#3FBDF1"/>
<path d="M141.08 350H134.08V346.5H141.08V350Z" fill="#F5BD33"/>
<path d="M184.83 350H177.83V346.5H184.83V350Z" fill="#3FBDF1"/>
<path d="M228.58 350H221.58V346.5H228.58V350Z" fill="#F5BD33"/>
<path d="M270 346.5V350H266.5V346.5H270Z" fill="#3FBDF1"/>
<path d="M270 301.583V308.583H266.5V301.583H270Z" fill="#F5BD33"/>
<path d="M270 257.833V264.833H266.5V257.833H270Z" fill="#3FBDF1"/>
<path d="M270 214.083V221.083H266.5V214.083H270Z" fill="#F5BD33"/>
<path d="M270 170.333V177.333H266.5V170.333H270Z" fill="#3FBDF1"/>
<path d="M270 126.583V133.583H266.5V126.583H270Z" fill="#F5BD33"/>
<path d="M270 82.8331V89.8331H266.5V82.8331H270Z" fill="#3FBDF1"/>
<path d="M270 39.0835V46.0835H266.5V39.0835H270Z" fill="#F5BD33"/>
<path d="M266.5 0V3.5H270V0H266.5Z" fill="#3FBDF1"/>
<path d="M221.58 0V3.5H228.58V0H221.58Z" fill="#F5BD33"/>
<path d="M177.83 0V3.5H184.83V0H177.83Z" fill="#3FBDF1"/>
<path d="M134.08 0V3.5H141.08V0H134.08Z" fill="#F5BD33"/>
<path d="M90.3296 0V3.5H97.3296V0H90.3296Z" fill="#3FBDF1"/>
<path d="M46.5796 0V3.5H53.5796V0H46.5796Z" fill="#F5BD33"/>
<path d="M2.82959 0V3.5H9.82959V0H2.82959Z" fill="#3FBDF1"/>
</g>
<defs>
<clipPath id="clip0_1_1823">
<rect width="350" height="350" fill="white" transform="translate(-80)"/>
</clipPath>
</defs>
</svg>
